ToyLandingModel_AFO_states
version=1
nRows=4
nColumns=195
inDegrees=yes

# SIMM Motion File Header:
name ToyLandingModel_AFO_states
datacolumns 195
datarows 4
otherdata 1
range 0.32321353 0.32341134
endheader
time	platform_rx	platform_ry	platform_rz	platform_ty	pelvis_tilt	pelvis_list	pelvis_rotation	pelvis_tx	pelvis_ty	pelvis_tz	hip_flexion_r	hip_adduction_r	hip_rotation_r	knee_angle_r	ankle_angle_r	subtalar_angle_r	mtp_angle_r	hip_flexion_l	hip_adduction_l	hip_rotation_l	knee_angle_l	ankle_angle_l	subtalar_angle_l	mtp_angle_l	lumbar_extension	lumbar_bending	lumbar_rotation	platform_rx_u	platform_ry_u	platform_rz_u	platform_ty_u	pelvis_tilt_u	pelvis_list_u	pelvis_rotation_u	pelvis_tx_u	pelvis_ty_u	pelvis_tz_u	hip_flexion_r_u	hip_adduction_r_u	hip_rotation_r_u	knee_angle_r_u	ankle_angle_r_u	subtalar_angle_r_u	mtp_angle_r_u	hip_flexion_l_u	hip_adduction_l_u	hip_rotation_l_u	knee_angle_l_u	ankle_angle_l_u	subtalar_angle_l_u	mtp_angle_l_u	lumbar_extension_u	lumbar_bending_u	lumbar_rotation_u	glut_med1_r.activation	glut_med1_r.fiber_length	glut_med2_r.activation	glut_med2_r.fiber_length	glut_med3_r.activation	glut_med3_r.fiber_length	bifemlh_r.activation	bifemlh_r.fiber_length	bifemsh_r.activation	bifemsh_r.fiber_length	sar_r.activation	sar_r.fiber_length	add_mag2_r.activation	add_mag2_r.fiber_length	tfl_r.activation	tfl_r.fiber_length	pect_r.activation	pect_r.fiber_length	grac_r.activation	grac_r.fiber_length	glut_max1_r.activation	glut_max1_r.fiber_length	glut_max2_r.activation	glut_max2_r.fiber_length	glut_max3_r.activation	glut_max3_r.fiber_length	iliacus_r.activation	iliacus_r.fiber_length	psoas_r.activation	psoas_r.fiber_length	quad_fem_r.activation	quad_fem_r.fiber_length	gem_r.activation	gem_r.fiber_length	peri_r.activation	peri_r.fiber_length	rect_fem_r.activation	rect_fem_r.fiber_length	vas_int_r.activation	vas_int_r.fiber_length	med_gas_r.activation	med_gas_r.fiber_length	lat_gas_r.activation	lat_gas_r.fiber_length	soleus_r.activation	soleus_r.fiber_length	tib_post_r.activation	tib_post_r.fiber_length	flex_dig_r.activation	flex_dig_r.fiber_length	flex_hal_r.activation	flex_hal_r.fiber_length	tib_ant_r.activation	tib_ant_r.fiber_length	per_brev_r.activation	per_brev_r.fiber_length	per_long_r.activation	per_long_r.fiber_length	per_tert_r.activation	per_tert_r.fiber_length	ext_dig_r.activation	ext_dig_r.fiber_length	ext_hal_r.activation	ext_hal_r.fiber_length	glut_med1_l.activation	glut_med1_l.fiber_length	glut_med2_l.activation	glut_med2_l.fiber_length	glut_med3_l.activation	glut_med3_l.fiber_length	bifemlh_l.activation	bifemlh_l.fiber_length	bifemsh_l.activation	bifemsh_l.fiber_length	sar_l.activation	sar_l.fiber_length	add_mag2_l.activation	add_mag2_l.fiber_length	tfl_l.activation	tfl_l.fiber_length	pect_l.activation	pect_l.fiber_length	grac_l.activation	grac_l.fiber_length	glut_max1_l.activation	glut_max1_l.fiber_length	glut_max2_l.activation	glut_max2_l.fiber_length	glut_max3_l.activation	glut_max3_l.fiber_length	iliacus_l.activation	iliacus_l.fiber_length	psoas_l.activation	psoas_l.fiber_length	quad_fem_l.activation	quad_fem_l.fiber_length	gem_l.activation	gem_l.fiber_length	peri_l.activation	peri_l.fiber_length	rect_fem_l.activation	rect_fem_l.fiber_length	vas_int_l.activation	vas_int_l.fiber_length	med_gas_l.activation	med_gas_l.fiber_length	lat_gas_l.activation	lat_gas_l.fiber_length	soleus_l.activation	soleus_l.fiber_length	tib_post_l.activation	tib_post_l.fiber_length	flex_dig_l.activation	flex_dig_l.fiber_length	flex_hal_l.activation	flex_hal_l.fiber_length	tib_ant_l.activation	tib_ant_l.fiber_length	per_brev_l.activation	per_brev_l.fiber_length	per_long_l.activation	per_long_l.fiber_length	per_tert_l.activation	per_tert_l.fiber_length	ext_dig_l.activation	ext_dig_l.fiber_length	ext_hal_l.activation	ext_hal_l.fiber_length	ercspn_r.activation	ercspn_r.fiber_length	ercspn_l.activation	ercspn_l.fiber_length	intobl_r.activation	intobl_r.fiber_length	intobl_l.activation	intobl_l.fiber_length	extobl_r.activation	extobl_r.fiber_length	extobl_l.activation	extobl_l.fiber_length
      0.32321353	     20.00000000	     -0.00000000	     -0.00000000	     -0.50000000	     -8.05710624	     -0.16231365	      0.89139496	      0.05213214	      0.41668863	     -0.00114524	     12.10493319	     -1.38689324	     -0.92778096	    -14.82879817	      4.35611202	      4.20617183	     -0.00000000	    -19.99999998	     10.00000028	      4.99999985	   -119.99999986	     11.49999977	     -0.03000064	     -0.00000000	     -4.48166763	     -0.01398793	      0.16742299	     -0.00000000	     -0.00000000	     -0.00000000	      0.00000000	     10.83514798	     -1.89085310	      2.32489902	      0.00740740	     -3.13878547	     -0.00881909	    -12.52440004	     -6.74503866	    -47.36272622	    -40.15063621	    450.76024963	    547.50844994	     -0.00000000	      0.00000000	     -0.00000000	     -0.00000000	     -0.00000000	      0.00000000	      0.00000000	     -0.00000000	    -11.31861106	      2.44291071	      1.42570600	      0.01359621	      0.04566556	      0.01055930	      0.08165573	      0.01055930	      0.06390264	      0.01055930	      0.09840375	      0.01056895	      0.16503874	      0.01055930	      0.45680261	      0.01055930	      0.07808393	      0.01719159	      0.10181296	      0.01070222	      0.06664065	      0.01055930	      0.31083410	      0.01055930	      0.08405086	      0.01055930	      0.09304875	      0.01055930	      0.10661583	      0.01509265	      0.09883521	      0.01446429	      0.09297121	      0.01055930	      0.04585728	      0.01058173	      0.02480453	      0.01055930	      0.02266651	      0.01313601	      0.10225087	      0.01088501	      0.07780639	      0.03486556	      0.09053295	      0.04321769	      0.06316622	      0.03669230	      0.08086233	      0.02012721	      0.03329813	      0.01973276	      0.03084027	      0.01405526	      0.03921025	      0.03349893	      0.07543792	      0.05372876	      0.05144509	      0.05639231	      0.05187844	      0.02141657	      0.07891219	      0.02443756	      0.09320904	      0.02662232	      0.09998153	      0.01055930	      0.04645762	      0.01055930	      0.07923577	      0.01055930	      0.06066148	      0.01055930	      0.02205398	      0.01055930	      0.12237352	      0.01055930	      0.45554767	      0.01055930	      0.05827442	      0.01055930	      0.13391160	      0.01055930	      0.07306967	      0.01055930	      0.24299998	      0.01055930	      0.06636889	      0.01055930	      0.06553228	      0.01055930	      0.05768828	      0.01055930	      0.11895237	      0.01055930	      0.11275250	      0.01055930	      0.04385215	      0.01055930	      0.02477358	      0.01055930	      0.02330096	      0.01055930	      0.18252063	      0.01055930	      0.13945685	      0.01055930	      0.06767913	      0.01055930	      0.04182623	      0.01055930	      0.08591319	      0.01055930	      0.03559912	      0.01055930	      0.03411133	      0.01055930	      0.04248848	      0.01055930	      0.07207738	      0.01055930	      0.05027709	      0.01055930	      0.05150767	      0.01055930	      0.07462627	      0.01055930	      0.08881646	      0.01055930	      0.09635597	      0.01055930	      0.12281988	      0.01055962	      0.12285962	      0.01055930	      0.09480759	      0.01055930	      0.09455499	      0.01055930	      0.12818788	      0.01055930	      0.12833771
      0.32327176	     20.00000000	     -0.00000000	     -0.00000000	     -0.50000000	     -8.05647399	     -0.16242893	      0.89152790	      0.05213256	      0.41650585	     -0.00114577	     12.10423525	     -1.38730739	     -0.93057991	    -14.83132152	      4.38331110	      4.23824853	     -0.00000000	    -19.99999998	     10.00000028	      4.99999985	   -119.99999986	     11.49999977	     -0.03000064	     -0.00000000	     -4.48232988	     -0.01383695	      0.16750951	      0.00000000	      0.00000000	     -0.00000000	      0.00000000	     10.88035744	     -2.06883911	      2.24132372	      0.00700659	     -3.13871804	     -0.00945028	    -11.43796152	     -7.48676739	    -48.76000482	    -46.57855714	    483.43343267	    553.71620294	     -0.00000000	      0.00000000	     -0.00000000	     -0.00000000	     -0.00000000	      0.00000000	      0.00000000	     -0.00000000	    -11.42766901	      2.74389184	      1.54600132	      0.01374235	      0.04566578	      0.01055888	      0.08165524	      0.01055888	      0.06390154	      0.01055888	      0.09840265	      0.01056852	      0.16503895	      0.01055888	      0.45680350	      0.01055888	      0.07808344	      0.01721519	      0.10181391	      0.01070170	      0.06664125	      0.01055888	      0.31083409	      0.01055888	      0.08404957	      0.01055888	      0.09304717	      0.01055888	      0.10661383	      0.01508966	      0.09883613	      0.01446095	      0.09297203	      0.01055888	      0.04585589	      0.01058129	      0.02480371	      0.01055888	      0.02266581	      0.01336104	      0.10225126	      0.01107026	      0.07780586	      0.03782014	      0.09053010	      0.04703912	      0.06316390	      0.03989425	      0.08085976	      0.02011940	      0.03329814	      0.01972526	      0.03084031	      0.01405218	      0.03921037	      0.03348011	      0.07543833	      0.05840583	      0.05144289	      0.06145395	      0.05187600	      0.02140773	      0.07891281	      0.02442628	      0.09321006	      0.02660926	      0.09998227	      0.01055888	      0.04645763	      0.01055888	      0.07923577	      0.01055888	      0.06066149	      0.01055888	      0.02205399	      0.01055888	      0.12237353	      0.01055888	      0.45554768	      0.01055888	      0.05827443	      0.01055888	      0.13391160	      0.01055888	      0.07306967	      0.01055888	      0.24299999	      0.01055888	      0.06636890	      0.01055888	      0.06553229	      0.01055888	      0.05768829	      0.01055888	      0.11895238	      0.01055888	      0.11275251	      0.01055888	      0.04385215	      0.01055888	      0.02477358	      0.01055888	      0.02330098	      0.01055888	      0.18252063	      0.01055888	      0.13945686	      0.01055888	      0.06767917	      0.01055888	      0.04182629	      0.01055888	      0.08591321	      0.01055888	      0.03559914	      0.01055888	      0.03411141	      0.01055888	      0.04248856	      0.01055888	      0.07207740	      0.01055888	      0.05027711	      0.01055888	      0.05150771	      0.01055888	      0.07462628	      0.01055888	      0.08881651	      0.01055888	      0.09635601	      0.01055888	      0.12282031	      0.01055920	      0.12286005	      0.01055888	      0.09480712	      0.01055888	      0.09455437	      0.01055888	      0.12818725	      0.01055888	      0.12833700
      0.32332999	     20.00000000	     -0.00000000	     -0.00000000	     -0.50000000	     -8.05583906	     -0.16255468	      0.89165597	      0.05213296	      0.41632309	     -0.00114634	     12.10360216	     -1.38776594	     -0.93345897	    -14.83422991	      4.41242272	      4.27062462	     -0.00000000	    -19.99999998	     10.00000028	      4.99999985	   -119.99999986	     11.49999977	     -0.03000064	     -0.00000000	     -4.48299860	     -0.01366818	      0.16760308	     -0.00000000	      0.00000000	     -0.00000000	      0.00000000	     10.92696665	     -2.25117918	      2.15691413	      0.00658865	     -3.13863273	     -0.01011604	    -10.29707690	     -8.26841280	    -50.12136378	    -53.37136348	    516.55493620	    558.11146616	     -0.00000000	      0.00000000	     -0.00000000	     -0.00000000	     -0.00000000	      0.00000000	      0.00000000	     -0.00000000	    -11.54067172	      3.05445294	      1.66844100	      0.01389335	      0.04566600	      0.01055846	      0.08165475	      0.01055846	      0.06390043	      0.01055846	      0.09840154	      0.01056810	      0.16503913	      0.01055846	      0.45680435	      0.01055846	      0.07808296	      0.01723896	      0.10181485	      0.01070117	      0.06664185	      0.01055846	      0.31083404	      0.01055846	      0.08404828	      0.01055846	      0.09304559	      0.01055846	      0.10661184	      0.01508627	      0.09883705	      0.01445756	      0.09297286	      0.01055846	      0.04585446	      0.01058086	      0.02480287	      0.01055846	      0.02266510	      0.01362153	      0.10225161	      0.01130019	      0.07780531	      0.04094553	      0.09052696	      0.05109467	      0.06316132	      0.04330688	      0.08085696	      0.02011159	      0.03329814	      0.01971776	      0.03084035	      0.01404911	      0.03921049	      0.03346132	      0.07543865	      0.06306644	      0.05144054	      0.06652409	      0.05187335	      0.02139890	      0.07891340	      0.02441501	      0.09321102	      0.02659621	      0.09998294	      0.01055846	      0.04645764	      0.01055846	      0.07923578	      0.01055846	      0.06066149	      0.01055846	      0.02205400	      0.01055846	      0.12237354	      0.01055846	      0.45554769	      0.01055846	      0.05827444	      0.01055846	      0.13391160	      0.01055846	      0.07306967	      0.01055846	      0.24300000	      0.01055846	      0.06636891	      0.01055846	      0.06553230	      0.01055846	      0.05768830	      0.01055846	      0.11895238	      0.01055846	      0.11275252	      0.01055846	      0.04385216	      0.01055846	      0.02477358	      0.01055846	      0.02330099	      0.01055846	      0.18252063	      0.01055846	      0.13945686	      0.01055846	      0.06767922	      0.01055846	      0.04182634	      0.01055846	      0.08591322	      0.01055846	      0.03559916	      0.01055846	      0.03411149	      0.01055846	      0.04248865	      0.01055846	      0.07207743	      0.01055846	      0.05027713	      0.01055846	      0.05150775	      0.01055846	      0.07462629	      0.01055846	      0.08881656	      0.01055846	      0.09635605	      0.01055846	      0.12282074	      0.01055878	      0.12286048	      0.01055846	      0.09480664	      0.01055846	      0.09455376	      0.01055846	      0.12818662	      0.01055846	      0.12833630
      0.32341134	     20.00000000	     -0.00000000	     -0.00000000	     -0.50000000	     -8.05494736	     -0.16274850	      0.89182652	      0.05213347	      0.41606775	     -0.00114720	     12.10283204	     -1.38848487	     -0.93761387	    -14.83897577	      4.45637567	      4.31624787	     -0.00000000	    -19.99999998	     10.00000028	      4.99999985	   -119.99999986	     11.49999977	     -0.03000064	     -0.00000000	     -4.48394415	     -0.01340145	      0.16774598	     -0.00000000	     -0.00000000	     -0.00000000	      0.00000000	     10.99477228	     -2.51559733	      2.03494879	      0.00597671	     -3.13847727	     -0.01109288	     -8.62051924	     -9.41498642	    -52.02459795	    -63.39163886	    564.26099506	    563.40160339	     -0.00000000	      0.00000000	     -0.00000000	     -0.00000000	     -0.00000000	      0.00000000	      0.00000000	     -0.00000000	    -11.70555724	      3.50616085	      1.84584037	      0.01411160	      0.04566627	      0.01055787	      0.08165408	      0.01055787	      0.06389887	      0.01055787	      0.09839998	      0.01056750	      0.16503934	      0.01055787	      0.45680546	      0.01055787	      0.07808230	      0.01727231	      0.10181615	      0.01070043	      0.06664269	      0.01055787	      0.31083389	      0.01055787	      0.08404648	      0.01055787	      0.09304340	      0.01055787	      0.10660909	      0.01508093	      0.09883834	      0.01445284	      0.09297401	      0.01055787	      0.04585240	      0.01058025	      0.02480167	      0.01055787	      0.02266409	      0.01404779	      0.10225199	      0.01169970	      0.07780446	      0.04559460	      0.09052208	      0.05714676	      0.06315730	      0.04842463	      0.08085268	      0.02010069	      0.03329814	      0.01970730	      0.03084041	      0.01404482	      0.03921065	      0.03343508	      0.07543895	      0.06953790	      0.05143705	      0.07360946	      0.05186935	      0.02138657	      0.07891413	      0.02439929	      0.09321226	      0.02657799	      0.09998372	      0.01055787	      0.04645765	      0.01055787	      0.07923578	      0.01055787	      0.06066150	      0.01055787	      0.02205402	      0.01055787	      0.12237354	      0.01055787	      0.45554770	      0.01055787	      0.05827445	      0.01055787	      0.13391161	      0.01055787	      0.07306968	      0.01055787	      0.24300002	      0.01055787	      0.06636892	      0.01055787	      0.06553231	      0.01055787	      0.05768831	      0.01055787	      0.11895239	      0.01055787	      0.11275253	      0.01055787	      0.04385216	      0.01055787	      0.02477359	      0.01055787	      0.02330102	      0.01055787	      0.18252064	      0.01055787	      0.13945686	      0.01055787	      0.06767928	      0.01055787	      0.04182642	      0.01055787	      0.08591324	      0.01055787	      0.03559918	      0.01055787	      0.03411161	      0.01055787	      0.04248877	      0.01055787	      0.07207746	      0.01055787	      0.05027715	      0.01055787	      0.05150780	      0.01055787	      0.07462630	      0.01055787	      0.08881663	      0.01055787	      0.09635610	      0.01055787	      0.12282134	      0.01055820	      0.12286111	      0.01055787	      0.09480596	      0.01055787	      0.09455291	      0.01055787	      0.12818572	      0.01055787	      0.12833532
